<mxfile host="multicloud-diagrams" agent="PIP package multicloud-diagrams. Generate resources in draw.io compatible format for Cloud infrastructure. Copyrights @ Roman Tsypuk 2023. MIT license." type="MultiCloud">
	<diagram id="diagram_1" name="AWS components">
		<mxGraphModel dx="1015" dy="661" grid="1" gridSize="10" guides="1" tooltips="1" connect="1" arrows="1" fold="1" page="1" pageScale="1" pageWidth="850" pageHeight="1100" math="0" shadow="1">
			<root>
				<mxCell id="0"/>
				<mxCell id="1" parent="0"/>
				<mxCell id="vertex:elastic_beanstalk:arn:aws:elastic_beanstalk:us-west-1:123456789012:elastic_beanstalk/123" value="&lt;b&gt;Name&lt;/b&gt;: Registry for images&lt;BR&gt;&lt;b&gt;ARN&lt;/b&gt;: arn:aws:elastic_beanstalk:us-west-1:123456789012:elastic_beanstalk/123&lt;BR&gt;-----------&lt;BR&gt;&lt;b&gt;EnvironmentName&lt;/b&gt;: Production&lt;BR&gt;&lt;b&gt;EnvironmentId&lt;/b&gt;: 1&lt;BR&gt;&lt;b&gt;ApplicationName&lt;/b&gt;: events-processor&lt;BR&gt;&lt;b&gt;VersionLabel&lt;/b&gt;: v2&lt;BR&gt;&lt;b&gt;SolutionStackName&lt;/b&gt;: web-tier&lt;BR&gt;&lt;b&gt;TemplateName&lt;/b&gt;: cdk&lt;BR&gt;&lt;b&gt;Description&lt;/b&gt;: Processing onboarding events&lt;BR&gt;&lt;b&gt;EndpointURL&lt;/b&gt;: https://mydomain.com&lt;BR&gt;&lt;b&gt;CNAME&lt;/b&gt;: mydomain&lt;BR&gt;&lt;b&gt;Status&lt;/b&gt;: Ready&lt;BR&gt;&lt;b&gt;AbortableOperationInProgress&lt;/b&gt;: True&lt;BR&gt;&lt;b&gt;Health&lt;/b&gt;: Green&lt;BR&gt;&lt;b&gt;HealthStatus&lt;/b&gt;: Ok" style="sketch=0;outlineConnect=0;fontColor=#232F3E;fillColor=#ED7100;strokeColor=#ffffff;dashed=0;verticalLabelPosition=bottom;verticalAlign=top;align=left;html=1;fontSize=12;fontStyle=0;aspect=fixed;shape=mxgraph.aws4.resourceIcon;resIcon=mxgraph.aws4.elastic_beanstalk;" parent="1" vertex="1">
					<mxGeometry width="78" height="78" as="geometry"/>
				</mxCell>
			</root>
		</mxGraphModel>
	</diagram>
</mxfile>